<?xml version="1.0" encoding="UTF-8"?>
<!DOCTYPE svg PUBLIC "-//W3C//DTD SVG 1.1//EN" "http://www.w3.org/Graphics/SVG/1.1/DTD/svg11.dtd">
<svg id="visual" viewBox="0 0 900 600" width="100%" height="100%" xmlns="http://www.w3.org/2000/svg" xmlns:xlink="http://www.w3.org/1999/xlink" version="1.1" preserveAspectRatio="none"><rect x="0" y="0" width="900" height="600" fill="#54c3ff"/><path d="M0 158L37.5 197.3C75 236.7 150 315.3 225 317.7C300 320 375 246 450 208.8C525 171.7 600 171.3 675 182.8C750 194.3 825 217.7 862.5 229.3L900 241L900 601L862.5 601C825 601 750 601 675 601C600 601 525 601 450 601C375 601 300 601 225 601C150 601 75 601 37.5 601L0 601Z" fill="#54c3ff"/><path d="M0 315L37.5 291.3C75 267.7 150 220.3 225 198C300 175.7 375 178.3 450 200.2C525 222 600 263 675 263.8C750 264.7 825 225.3 862.5 205.7L900 186L900 601L862.5 601C825 601 750 601 675 601C600 601 525 601 450 601C375 601 300 601 225 601C150 601 75 601 37.5 601L0 601Z" fill="#45bcff"/><path d="M0 268L37.5 260.8C75 253.7 150 239.3 225 238.8C300 238.3 375 251.7 450 255.3C525 259 600 253 675 286.5C750 320 825 393 862.5 429.5L900 466L900 601L862.5 601C825 601 750 601 675 601C600 601 525 601 450 601C375 601 300 601 225 601C150 601 75 601 37.5 601L0 601Z" fill="#37b5ff"/><path d="M0 251L37.5 286.3C75 321.7 150 392.3 225 418.5C300 444.7 375 426.3 450 401.5C525 376.7 600 345.3 675 316.8C750 288.3 825 262.7 862.5 249.8L900 237L900 601L862.5 601C825 601 750 601 675 601C600 601 525 601 450 601C375 601 300 601 225 601C150 601 75 601 37.5 601L0 601Z" fill="#29adff"/><path d="M0 463L37.5 465.5C75 468 150 473 225 441.3C300 409.7 375 341.3 450 321.3C525 301.3 600 329.7 675 349C750 368.3 825 378.7 862.5 383.8L900 389L900 601L862.5 601C825 601 750 601 675 601C600 601 525 601 450 601C375 601 300 601 225 601C150 601 75 601 37.5 601L0 601Z" fill="#1ea5ff"/><path d="M0 514L37.5 492C75 470 150 426 225 419.5C300 413 375 444 450 445.3C525 446.7 600 418.3 675 400.2C750 382 825 374 862.5 370L900 366L900 601L862.5 601C825 601 750 601 675 601C600 601 525 601 450 601C375 601 300 601 225 601C150 601 75 601 37.5 601L0 601Z" fill="#199dff"/><path d="M0 394L37.5 413.8C75 433.7 150 473.3 225 484.3C300 495.3 375 477.7 450 465.8C525 454 600 448 675 450.5C750 453 825 464 862.5 469.5L900 475L900 601L862.5 601C825 601 750 601 675 601C600 601 525 601 450 601C375 601 300 601 225 601C150 601 75 601 37.5 601L0 601Z" fill="#1d95ff"/><path d="M0 442L37.5 455.7C75 469.3 150 496.7 225 512C300 527.3 375 530.7 450 528.2C525 525.7 600 517.3 675 500C750 482.7 825 456.3 862.5 443.2L900 430L900 601L862.5 601C825 601 750 601 675 601C600 601 525 601 450 601C375 601 300 601 225 601C150 601 75 601 37.5 601L0 601Z" fill="#2f8cff"/><path d="M0 427L37.5 444.8C75 462.7 150 498.3 225 507C300 515.7 375 497.3 450 486.5C525 475.7 600 472.3 675 484C750 495.7 825 522.3 862.5 535.7L900 549L900 601L862.5 601C825 601 750 601 675 601C600 601 525 601 450 601C375 601 300 601 225 601C150 601 75 601 37.5 601L0 601Z" fill="#4681ff"/><path d="M0 543L37.5 529.3C75 515.7 150 488.3 225 480.5C300 472.7 375 484.3 450 492.7C525 501 600 506 675 513.2C750 520.3 825 529.7 862.5 534.3L900 539L900 601L862.5 601C825 601 750 601 675 601C600 601 525 601 450 601C375 601 300 601 225 601C150 601 75 601 37.5 601L0 601Z" fill="#5f75ff"/><path d="M0 495L37.5 497.5C75 500 150 505 225 506.5C300 508 375 506 450 510.8C525 515.7 600 527.3 675 525.7C750 524 825 509 862.5 501.5L900 494L900 601L862.5 601C825 601 750 601 675 601C600 601 525 601 450 601C375 601 300 601 225 601C150 601 75 601 37.5 601L0 601Z" fill="#7766ff"/><path d="M0 534L37.5 535.3C75 536.7 150 539.3 225 539.7C300 540 375 538 450 538.7C525 539.3 600 542.7 675 546C750 549.3 825 552.7 862.5 554.3L900 556L900 601L862.5 601C825 601 750 601 675 601C600 601 525 601 450 601C375 601 300 601 225 601C150 601 75 601 37.5 601L0 601Z" fill="#8f54ff"/></svg>